<svg width="136" height="48" viewBox="0 0 136 48" fill="none" xmlns="http://www.w3.org/2000/svg">
<g clip-path="url(#clip0_11_363)">
<path fill-rule="evenodd" clip-rule="evenodd" d="M22.6727 8.40996C22.6727 7.35118 22.4263 6.30693 21.9527 5.35991C21.5434 4.54132 21.3031 3.64873 21.246 2.73529L21.1091 0.54541L20.9723 2.73521C20.9151 3.64866 20.6748 4.54128 20.2655 5.35989C19.792 6.30692 19.5455 7.3512 19.5455 8.41V39.5899C19.5455 40.6487 19.792 41.693 20.2655 42.6401C20.6748 43.4586 20.9151 44.3513 20.9723 45.2647L21.1091 47.4545L21.246 45.2646C21.3031 44.3512 21.5434 43.4586 21.9527 42.64C22.4263 41.693 22.6727 40.6488 22.6727 39.5899V8.40996ZM14.1345 8.48719C14.6081 9.4342 14.8545 10.4785 14.8545 11.5373V36.4626C14.8545 37.5215 14.6081 38.5657 14.1345 39.5128C13.7252 40.3314 13.4849 41.224 13.4277 42.1374L13.2909 44.3272L13.1541 42.1374C13.0969 41.224 12.8566 40.3314 12.4473 39.5128C11.9737 38.5657 11.7273 37.5215 11.7273 36.4626V11.5373C11.7273 10.4785 11.9737 9.4342 12.4473 8.48719C12.8566 7.66858 13.0969 6.77598 13.1541 5.86254L13.2909 3.67269L13.4277 5.86254C13.4849 6.77598 13.7252 7.66858 14.1345 8.48719ZM10.9455 14.6646C10.9455 13.6057 10.699 12.5615 10.2254 11.6145C9.81612 10.7958 9.57578 9.90324 9.51869 8.98979L9.38182 6.79995L9.24495 8.98979C9.18786 9.90324 8.94751 10.7958 8.53821 11.6145C8.0647 12.5615 7.81818 13.6057 7.81818 14.6646V33.3354C7.81818 34.3941 8.0647 35.4384 8.53821 36.3854C8.94751 37.2041 9.18786 38.0966 9.24495 39.0101L9.38182 41.2L9.51869 39.0101C9.57578 38.0966 9.81612 37.2041 10.2254 36.3854C10.699 35.4384 10.9455 34.3941 10.9455 33.3354V14.6646ZM6.31634 17.8689C6.78985 18.816 7.03636 19.8602 7.03636 20.9191V27.0808C7.03636 28.1396 6.78985 29.1839 6.31634 30.1309C5.90704 30.9495 5.66669 31.8421 5.60959 32.7555L5.47273 34.9454L5.33586 32.7555C5.27877 31.8421 5.03842 30.9495 4.62912 30.1309C4.15561 29.1839 3.90909 28.1396 3.90909 27.0808V20.9191C3.90909 19.8602 4.15561 18.816 4.62912 17.8689C5.03842 17.0504 5.27877 16.1577 5.33586 15.2444L5.47273 13.0545L5.60959 15.2444C5.66669 16.1577 5.90704 17.0504 6.31634 17.8689ZM3.12712 24L3.12727 24.0464V23.9535L3.12712 24ZM0 24.0464L0.000157753 24C0.00725063 25.0429 0.253433 26.0705 0.720026 27.0036C1.12933 27.8223 1.36968 28.7148 1.42677 29.6283L1.56364 31.8181L1.7005 29.6283C1.7576 28.7148 1.99795 27.8223 2.40725 27.0036C2.87384 26.0705 3.12002 25.0429 3.12712 24C3.12002 22.957 2.87384 21.9294 2.40725 20.9963C1.99795 20.1776 1.7576 19.2851 1.7005 18.3716L1.56364 16.1818L1.42677 18.3716C1.36968 19.2851 1.12933 20.1776 0.720026 20.9963C0.253433 21.9294 0.00725065 22.957 0.000157753 24L0 23.9535V24.0464ZM18.0436 5.35991C18.5172 6.30692 18.7636 7.35119 18.7636 8.40998V39.5899C18.7636 40.6488 18.5172 41.693 18.0436 42.64C17.6343 43.4586 17.394 44.3512 17.3368 45.2646L17.2 47.4545L17.0632 45.2646C17.006 44.3512 16.7657 43.4586 16.3564 42.64C15.8828 41.693 15.6364 40.6488 15.6364 39.5899V8.40998C15.6364 7.35119 15.8828 6.30692 16.3564 5.35991C16.7657 4.5413 17.006 3.64869 17.0632 2.73525L17.2 0.54541L17.3368 2.73525C17.394 3.64869 17.6343 4.5413 18.0436 5.35991ZM25.8618 5.35991C26.3353 6.30692 26.5818 7.35119 26.5818 8.40998V39.5899C26.5818 40.6488 26.3353 41.693 25.8618 42.64C25.4525 43.4586 25.2122 44.3512 25.155 45.2646L25.0182 47.4545L24.8814 45.2646C24.8242 44.3512 24.5839 43.4586 24.1746 42.64C23.701 41.693 23.4545 40.6488 23.4545 39.5899V8.40998C23.4545 7.35119 23.701 6.30692 24.1746 5.35991C24.5839 4.5413 24.8242 3.64869 24.8814 2.73525L25.0182 0.54541L25.155 2.73525C25.2122 3.64869 25.4525 4.5413 25.8618 5.35991ZM30.4909 11.5373C30.4909 10.4785 30.2444 9.4342 29.7709 8.48719C29.3616 7.66858 29.1213 6.77598 29.0641 5.86254L28.9273 3.67269L28.7905 5.86254C28.7333 6.77598 28.493 7.66858 28.0837 8.48719C27.6101 9.4342 27.3636 10.4785 27.3636 11.5373V36.4626C27.3636 37.5215 27.6101 38.5657 28.0837 39.5128C28.493 40.3314 28.7333 41.224 28.7905 42.1374L28.9273 44.3272L29.0641 42.1374C29.1213 41.224 29.3616 40.3314 29.7709 39.5128C30.2444 38.5657 30.4909 37.5215 30.4909 36.4626V11.5373ZM33.6799 11.6145C34.1535 12.5615 34.4 13.6057 34.4 14.6646V33.3354C34.4 34.3941 34.1535 35.4384 33.6799 36.3854C33.2707 37.2041 33.0304 38.0966 32.9732 39.0101L32.8364 41.2L32.6995 39.0101C32.6424 38.0966 32.4021 37.2041 31.9928 36.3854C31.5193 35.4384 31.2727 34.3941 31.2727 33.3354V14.6646C31.2727 13.6057 31.5193 12.5615 31.9928 11.6145C32.4021 10.7958 32.6424 9.90324 32.6995 8.98979L32.8364 6.79995L32.9732 8.98979C33.0304 9.90324 33.2707 10.7958 33.6799 11.6145ZM38.3091 20.9191C38.3091 19.8602 38.0626 18.816 37.589 17.8689C37.1798 17.0504 36.9394 16.1577 36.8823 15.2444L36.7455 13.0545L36.6086 15.2444C36.5515 16.1577 36.3112 17.0504 35.9019 17.8689C35.4284 18.816 35.1818 19.8602 35.1818 20.9191V27.0808C35.1818 28.1396 35.4284 29.1839 35.9019 30.1309C36.3112 30.9495 36.5515 31.8421 36.6086 32.7555L36.7455 34.9454L36.8823 32.7555C36.9394 31.8421 37.1798 30.9495 37.589 30.1309C38.0626 29.1839 38.3091 28.1396 38.3091 27.0808V20.9191ZM42.218 24C42.2181 24.0154 42.2182 24.0308 42.2182 24.0464V23.9535C42.2182 23.9691 42.2181 23.9845 42.218 24ZM39.0911 24C39.0981 25.0429 39.3443 26.0705 39.811 27.0036C40.2202 27.8223 40.4606 28.7148 40.5177 29.6283L40.6545 31.8181L40.7914 29.6283C40.8485 28.7148 41.0888 27.8223 41.4981 27.0036C41.9648 26.0705 42.2109 25.0429 42.218 24C42.2109 22.957 41.9648 21.9294 41.4981 20.9963C41.0888 20.1776 40.8485 19.2851 40.7914 18.3716L40.6545 16.1818L40.5177 18.3716C40.4606 19.2851 40.2202 20.1776 39.811 20.9963C39.3443 21.9294 39.0981 22.957 39.0911 24ZM39.0911 24C39.091 23.9845 39.0909 23.9691 39.0909 23.9535V24.0464C39.0909 24.0308 39.091 24.0154 39.0911 24Z" fill="white"/>
</g>
<path d="M52.22 33V16.8H55.18V30.96H59.1V33H52.22ZM61.438 33V16.8H64.358V33H61.438ZM70.0658 33L66.8058 16.8H69.4258L71.5658 28.26L73.5658 16.8H76.2458L72.9858 33H70.0658ZM78.6183 33V16.8H85.4183V18.88H81.5783V23.54H84.5983V25.6H81.5783V30.96H85.4583V33H78.6183ZM91.973 33.22C90.9996 33.22 90.1863 33.0333 89.533 32.66C88.8796 32.2733 88.3863 31.7133 88.053 30.98C87.7196 30.2467 87.533 29.3467 87.493 28.28L90.033 27.78C90.0596 28.4067 90.133 28.96 90.253 29.44C90.3863 29.92 90.5796 30.2933 90.833 30.56C91.0996 30.8133 91.4463 30.94 91.873 30.94C92.353 30.94 92.693 30.8 92.893 30.52C93.093 30.2267 93.193 29.86 93.193 29.42C93.193 28.7133 93.033 28.1333 92.713 27.68C92.393 27.2267 91.9663 26.7733 91.433 26.32L89.393 24.52C88.8196 24.0267 88.3596 23.48 88.013 22.88C87.6796 22.2667 87.513 21.5133 87.513 20.62C87.513 19.34 87.8863 18.3533 88.633 17.66C89.3796 16.9667 90.3996 16.62 91.693 16.62C92.453 16.62 93.0863 16.74 93.593 16.98C94.0996 17.2067 94.4996 17.5267 94.793 17.94C95.0996 18.3533 95.3263 18.8267 95.473 19.36C95.6196 19.88 95.713 20.4333 95.753 21.02L93.233 21.46C93.2063 20.9533 93.1463 20.5 93.053 20.1C92.973 19.7 92.8196 19.3867 92.593 19.16C92.3796 18.9333 92.0596 18.82 91.633 18.82C91.193 18.82 90.853 18.9667 90.613 19.26C90.3863 19.54 90.273 19.8933 90.273 20.32C90.273 20.8667 90.3863 21.32 90.613 21.68C90.8396 22.0267 91.1663 22.3867 91.593 22.76L93.613 24.54C94.2796 25.1 94.8463 25.76 95.313 26.52C95.793 27.2667 96.033 28.1733 96.033 29.24C96.033 30.0133 95.8596 30.7 95.513 31.3C95.1796 31.9 94.7063 32.3733 94.093 32.72C93.493 33.0533 92.7863 33.22 91.973 33.22ZM98.5358 33V16.8H101.476V23.58H104.796V16.8H107.736V33H104.796V25.68H101.476V33H98.5358ZM115.335 33.22C114.188 33.22 113.275 33.0067 112.595 32.58C111.915 32.1533 111.428 31.54 111.135 30.74C110.841 29.94 110.695 28.9933 110.695 27.9V21.84C110.695 20.7467 110.841 19.8133 111.135 19.04C111.428 18.2533 111.915 17.6533 112.595 17.24C113.275 16.8267 114.188 16.62 115.335 16.62C116.508 16.62 117.428 16.8267 118.095 17.24C118.775 17.6533 119.261 18.2533 119.555 19.04C119.861 19.8133 120.015 20.7467 120.015 21.84V27.92C120.015 29 119.861 29.94 119.555 30.74C119.261 31.5267 118.775 32.14 118.095 32.58C117.428 33.0067 116.508 33.22 115.335 33.22ZM115.335 31.04C115.828 31.04 116.188 30.9333 116.415 30.72C116.655 30.5067 116.815 30.2133 116.895 29.84C116.975 29.4667 117.015 29.06 117.015 28.62V21.16C117.015 20.7067 116.975 20.3 116.895 19.94C116.815 19.58 116.655 19.3 116.415 19.1C116.188 18.8867 115.828 18.78 115.335 18.78C114.868 18.78 114.515 18.8867 114.275 19.1C114.035 19.3 113.875 19.58 113.795 19.94C113.715 20.3 113.675 20.7067 113.675 21.16V28.62C113.675 29.06 113.708 29.4667 113.775 29.84C113.855 30.2133 114.015 30.5067 114.255 30.72C114.495 30.9333 114.855 31.04 115.335 31.04ZM124.624 33L122.324 16.8H124.804L126.144 27.3L127.824 16.84H129.844L131.564 27.3L132.884 16.8H135.324L133.064 33H130.664L128.864 22.14L127.084 33H124.624Z" fill="white"/>
<defs>
<clipPath id="clip0_11_363">
<rect width="43" height="48" fill="white"/>
</clipPath>
</defs>
</svg>
